<svg version="1.1" xmlns:x="&amp;ns_extend;" xmlns:i="&amp;ns_ai;" xmlns:graph="&amp;ns_graphs;" xmlns="http://www.w3.org/2000/svg" xmlns:xlink="http://www.w3.org/1999/xlink" x="0px" y="0px" viewBox="328.8894958496094 97.57860565185547 364.6300354003906 361.3667907714844" style="enable-background:new 0 0 264.4 315;" xml:space="preserve" id="final_svg">
      <style type="text/css">.st0{fill:url(#SVGID_1_);}</style>
    <metadata>
              <sfw>
                      <slices></slices>
            <slicesourcebounds bottomleftorigin="true" height="315" width="264.4" x="-90.3" y="279.6"></slicesourcebounds>
                  </sfw>
          </metadata>
    <g id="color_index_g" transform="translate(393.5394298511081, 97.57860875222826) scale(0.7909613424935338)" opacity="1">
              <linearGradient id="SVGID_1_" gradientUnits="userSpaceOnUse" x1="3.475228e-05" y1="157.5" x2="264.4113" y2="157.5">
                      <stop offset="0" style="stop-color:#d552fe"></stop>
            <stop offset="1" style="stop-color:#3f31ce"></stop>
                  </linearGradient>
        <path class="st0" d="M264.4,65.5h-85V0h-62.7v46H86.8v80.6H0V209h86.8v106h32.8v-32h59.8v-74v-2.9v-33.5h60.8v-24.8h24.2V65.5z		 M119.6,2.9h57v62.7v61.1h-57V46V2.9z M89.7,48.9h27.1v77.8H89.7V48.9z M86.8,129.5h29.9h2.9h19v54.8H2.9v-54.8H86.8z M2.9,206.1		v-18.9h135.8v18.9h-19h-2.9H86.8H2.9z M116.7,312.1H89.7V209h27.1v74V312.1z M176.5,280.1h-57V209h57V280.1z M176.5,206.1h-35		v-76.6h35V145v2.9v24.8V206.1z M237.4,169.8h-58v-21.9h58V169.8z M261.5,145h-21.3h-60.8v-15.6v-2.9V68.4h82.1V145z M72.2,82.8		H39.6v32.6h32.6V82.8z M69.4,112.5H42.5V85.7h26.9V112.5z M192.1,220.2h32.6v-32.6h-32.6V220.2z M195,190.4h26.9v26.9H195V190.4z"></path>
          </g>
    <g fill="#001087" id="text_group" transform="translate(323.28949539661403, 344.4020012579125)" opacity="1.0">
              <path d="M29.70 67.60L21.30 67.60Q13.28 67.60 9.44 63.77Q5.60 59.93 5.60 51.91L5.60 51.91L5.60 35.80Q5.60 27.71 9.42 23.87Q13.24 20.04 21.23 20.11L21.23 20.11L29.70 20.11Q36.29 20.11 39.76 22.82Q43.22 25.53 43.78 31.38L43.78 31.38Q43.99 32.85 43.22 33.63Q42.45 34.40 40.98 34.40L40.98 34.40Q38.32 34.40 37.90 31.45L37.90 31.45Q37.55 28.23 35.67 27.11Q33.80 25.99 29.70 25.99L29.70 25.99L21.23 25.99Q17.51 25.95 15.39 26.83Q13.28 27.71 12.38 29.86Q11.49 32.01 11.49 35.80L11.49 35.80L11.49 51.91Q11.49 55.66 12.38 57.79Q13.28 59.93 15.41 60.82Q17.55 61.72 21.30 61.72L21.30 61.72L29.70 61.72Q33.80 61.72 35.67 60.58Q37.55 59.44 37.90 56.25L37.90 56.25Q38.32 53.31 40.98 53.31L40.98 53.31Q42.45 53.31 43.22 54.08Q43.99 54.85 43.78 56.32L43.78 56.32Q43.22 62.21 39.76 64.90Q36.29 67.60 29.70 67.60L29.70 67.60ZM70.54 67.60L70.26 67.60Q68.44 67.60 67.39 65.29L67.39 65.29L50.09 24.31Q49.56 23.08 49.81 22.12Q50.05 21.16 51.42 20.53L51.42 20.53Q54.29 19.09 55.48 22.00L55.48 22.00L71.84 60.74L69.81 60.74L85.74 22.00Q86.90 19.12 89.81 20.53L89.81 20.53Q91.03 21.16 91.33 22.12Q91.63 23.08 91.14 24.31L91.14 24.31L73.70 65.29Q72.61 67.60 70.54 67.60L70.54 67.60ZM144.52 67.60L125.32 67.60Q122.38 67.60 122.38 64.66L122.38 64.66L122.38 23.05Q122.38 20.11 125.32 20.11L125.32 20.11L143.61 20.11Q149.18 20.11 152.17 23.05Q155.17 25.99 155.17 31.45L155.17 31.45L155.17 33.35Q155.17 38.07 152.19 40.67L152.19 40.67Q157.76 43.78 157.76 52.05L157.76 52.05L157.76 54.43Q157.76 60.88 154.34 64.24Q150.93 67.60 144.52 67.60L144.52 67.60ZM128.27 44.83L128.27 61.72L144.52 61.72Q148.48 61.72 150.18 60.02Q151.87 58.32 151.87 54.43L151.87 54.43L151.87 52.05Q151.87 48.16 150.23 46.50Q148.58 44.83 144.52 44.83L144.52 44.83L128.27 44.83ZM128.27 25.99L128.27 38.95L144.87 38.95Q147.43 38.95 148.35 37.37Q149.28 35.80 149.28 33.35L149.28 33.35L149.28 31.45Q149.28 28.41 148.02 27.20Q146.76 25.99 143.61 25.99L143.61 25.99L128.27 25.99ZM198.39 32.08L198.39 32.08Q201.33 32.08 201.33 35.03L201.33 35.03L201.33 64.66Q201.33 67.60 198.39 67.60L198.39 67.60Q195.45 67.60 195.45 64.66L195.45 64.66L195.45 63.50Q191.74 67.60 184.52 67.60L184.52 67.60L182.56 67.60Q175.55 67.60 172.19 64.24Q168.83 60.88 168.83 53.87L168.83 53.87L168.83 35.03Q168.83 32.08 171.77 32.08L171.77 32.08Q174.71 32.08 174.71 35.03L174.71 35.03L174.71 53.87Q174.71 58.46 176.38 60.09Q178.04 61.72 182.56 61.72L182.56 61.72L184.52 61.72Q188.72 61.72 191.84 60.75Q194.96 59.79 195.45 57.72L195.45 57.72L195.45 35.03Q195.45 32.08 198.39 32.08ZM218.85 67.60L218.85 67.60Q215.90 67.60 215.90 64.66L215.90 64.66L215.90 35.03Q215.90 32.08 218.85 32.08L218.85 32.08Q221.79 32.08 221.79 35.03L221.79 35.03L221.79 64.66Q221.79 67.60 218.85 67.60ZM219.89 26.34L217.88 26.34Q214.53 26.34 214.53 22.99L214.53 22.99L214.53 20.90Q214.53 17.63 217.88 17.63L217.88 17.63L219.89 17.63Q223.07 17.63 223.07 20.90L223.07 20.90L223.07 22.99Q223.07 26.34 219.89 26.34L219.89 26.34ZM246.94 67.60L246.94 67.60Q241.58 67.60 238.97 64.96Q236.36 62.31 236.36 56.95L236.36 56.95L236.36 21.23Q236.36 18.28 239.30 18.28L239.30 18.28Q242.24 18.28 242.24 21.23L242.24 21.23L242.24 56.95Q242.24 59.79 243.17 60.75Q244.10 61.72 246.94 61.72L246.94 61.72Q249.95 61.72 249.95 64.66L249.95 64.66Q250.05 67.60 246.94 67.60ZM273.70 67.60L271.04 67.60Q264.06 67.60 260.68 64.22Q257.30 60.84 257.30 53.87L257.30 53.87L257.30 45.81Q257.30 38.81 260.68 35.45Q264.06 32.08 271.04 32.08L271.04 32.08L284.63 32.08L284.63 21.23Q284.63 18.28 287.57 18.28L287.57 18.28Q290.51 18.28 290.51 21.23L290.51 21.23L290.51 64.66Q290.51 67.60 287.57 67.60L287.57 67.60Q284.63 67.60 284.63 64.66L284.63 64.66L284.63 64.17Q282.98 65.85 280.32 66.73Q277.66 67.60 273.70 67.60L273.70 67.60ZM271.04 61.72L271.04 61.72L273.70 61.72Q278.32 61.72 281.47 60.53Q284.63 59.33 284.63 56.88L284.63 56.88L284.63 37.97L271.04 37.97Q266.48 37.97 264.84 39.63Q263.19 41.30 263.19 45.81L263.19 45.81L263.19 53.87Q263.19 58.42 264.85 60.07Q266.52 61.72 271.04 61.72ZM332.96 52.26L308.58 52.26L308.58 53.94Q308.58 58.46 310.23 60.09Q311.88 61.72 316.43 61.72L316.43 61.72L322.17 61.72Q325.75 61.72 327.46 61.05Q329.18 60.39 329.74 58.70L329.74 58.70Q330.12 57.37 330.81 56.67Q331.49 55.97 332.89 55.97L332.89 55.97Q334.36 55.97 335.13 56.74Q335.90 57.51 335.62 58.98L335.62 58.98Q334.85 63.33 331.49 65.46Q328.13 67.60 322.17 67.60L322.17 67.60L316.43 67.60Q309.46 67.60 306.08 64.24Q302.70 60.88 302.70 53.94L302.70 53.94L302.70 45.81Q302.70 38.70 306.08 35.36Q309.46 32.01 316.43 32.08L316.43 32.08L322.17 32.08Q329.18 32.08 332.54 35.43Q335.90 38.77 335.90 45.81L335.90 45.81L335.90 49.32Q335.90 52.26 332.96 52.26L332.96 52.26ZM322.17 37.97L316.43 37.97Q311.88 37.90 310.23 39.54Q308.58 41.19 308.58 45.81L308.58 45.81L308.58 46.38L330.02 46.38L330.02 45.81Q330.02 41.23 328.39 39.60Q326.76 37.97 322.17 37.97L322.17 37.97ZM351.74 67.60L351.74 67.60Q348.79 67.60 348.79 64.66L348.79 64.66L348.79 35.03Q348.79 32.08 351.74 32.08L351.74 32.08Q354.68 32.08 354.68 35.03L354.68 35.03L354.68 37.76Q356.74 34.96 359.95 33.52Q363.15 32.08 367.29 32.08L367.29 32.08Q370.23 32.08 370.23 35.03L370.23 35.03Q370.23 37.97 367.29 37.97L367.29 37.97Q361.23 37.97 358.04 40.21Q354.85 42.45 354.68 46.13L354.68 46.13L354.68 64.66Q354.68 67.60 351.74 67.60Z"></path>
          </g>
    <g fill="#7a3ccf" id="tagline_group" transform="translate(335.36499815368654, 437.53539125791247)" opacity="1.0">
              <path d="M2.68 21.30L2.68 5.90L8.21 5.90Q11.13 5.90 12.77 7.26Q14.41 8.62 14.41 11.09L14.41 11.09Q14.41 12.30 13.98 13.25Q13.55 14.21 12.76 14.88Q11.97 15.55 10.81 15.91Q9.66 16.26 8.21 16.26L8.21 16.26L3.81 16.26L3.81 21.30L2.68 21.30ZM8.21 6.91L3.81 6.91L3.81 15.25L8.21 15.25Q10.67 15.25 11.97 14.17Q13.27 13.09 13.27 11.09L13.27 11.09Q13.27 9.09 11.97 8.00Q10.67 6.91 8.21 6.91L8.21 6.91ZM23.65 5.90L29.17 5.90Q32.10 5.90 33.74 7.26Q35.38 8.62 35.38 11.09L35.38 11.09Q35.38 12.94 34.44 14.17Q33.51 15.40 31.77 15.91L31.77 15.91L35.62 21.30L34.34 21.30L30.67 16.15Q30.25 16.19 29.89 16.23Q29.52 16.26 29.17 16.26L29.17 16.26L24.77 16.26L24.77 21.30L23.65 21.30L23.65 5.90ZM29.17 6.91L24.77 6.91L24.77 15.27L29.17 15.27Q31.64 15.27 32.93 14.18Q34.23 13.09 34.23 11.09L34.23 11.09Q34.23 9.09 32.93 8.00Q31.64 6.91 29.17 6.91L29.17 6.91ZM51.48 21.41L51.48 21.41Q49.21 21.41 47.39 20.38Q45.56 19.36 44.52 17.58Q43.47 15.80 43.47 13.60L43.47 13.60Q43.47 11.40 44.52 9.61Q45.56 7.83 47.39 6.81Q49.21 5.79 51.48 5.79L51.48 5.79Q53.75 5.79 55.57 6.80Q57.40 7.81 58.44 9.59Q59.49 11.37 59.49 13.60L59.49 13.60Q59.49 15.82 58.44 17.60Q57.40 19.38 55.57 20.39Q53.75 21.41 51.48 21.41ZM51.48 20.37L51.48 20.37Q53.42 20.37 54.98 19.49Q56.54 18.61 57.44 17.06Q58.34 15.51 58.34 13.60L58.34 13.60Q58.34 11.68 57.44 10.13Q56.54 8.58 54.98 7.70Q53.42 6.82 51.48 6.82L51.48 6.82Q49.54 6.82 47.97 7.70Q46.40 8.58 45.50 10.13Q44.59 11.68 44.59 13.60L44.59 13.60Q44.59 15.51 45.50 17.06Q46.40 18.61 47.97 19.49Q49.54 20.37 51.48 20.37ZM68.84 5.90L69.78 5.90L76.67 17.80L83.56 5.90L84.48 5.90L84.50 21.30L83.40 21.30L83.38 8.12L76.93 19.25L76.38 19.25L69.94 8.16L69.94 21.30L68.84 21.30L68.84 5.90ZM101.86 21.41L101.86 21.41Q99.59 21.41 97.77 20.38Q95.94 19.36 94.90 17.58Q93.85 15.80 93.85 13.60L93.85 13.60Q93.85 11.40 94.90 9.61Q95.94 7.83 97.77 6.81Q99.59 5.79 101.86 5.79L101.86 5.79Q104.13 5.79 105.95 6.80Q107.78 7.81 108.82 9.59Q109.87 11.37 109.87 13.60L109.87 13.60Q109.87 15.82 108.82 17.60Q107.78 19.38 105.95 20.39Q104.13 21.41 101.86 21.41ZM101.86 20.37L101.86 20.37Q103.80 20.37 105.36 19.49Q106.92 18.61 107.82 17.06Q108.72 15.51 108.72 13.60L108.72 13.60Q108.72 11.68 107.82 10.13Q106.92 8.58 105.36 7.70Q103.80 6.82 101.86 6.82L101.86 6.82Q99.92 6.82 98.35 7.70Q96.78 8.58 95.88 10.13Q94.97 11.68 94.97 13.60L94.97 13.60Q94.97 15.51 95.88 17.06Q96.78 18.61 98.35 19.49Q99.92 20.37 101.86 20.37ZM116.40 6.91L116.40 5.90L128.61 5.90L128.61 6.91L123.07 6.91L123.07 21.30L121.95 21.30L121.95 6.91L116.40 6.91ZM147.47 21.30L136.84 21.30L136.84 5.90L147.14 5.90L147.14 6.91L137.96 6.91L137.96 12.98L146.17 12.98L146.17 13.97L137.96 13.97L137.96 20.28L147.47 20.28L147.47 21.30ZM171.56 21.30L166.32 5.90L167.51 5.90L172.19 19.76L177.01 5.90L178.09 5.90L182.89 19.78L187.62 5.90L188.72 5.90L183.50 21.30L182.31 21.30L177.54 7.48L172.74 21.30L171.56 21.30ZM197.41 21.30L197.41 5.90L198.53 5.90L198.53 21.30L197.41 21.30ZM206.76 6.91L206.76 5.90L218.97 5.90L218.97 6.91L213.42 6.91L213.42 21.30L212.30 21.30L212.30 6.91L206.76 6.91ZM227.19 5.90L228.32 5.90L228.32 12.98L238.61 12.98L238.61 5.90L239.73 5.90L239.73 21.30L238.61 21.30L238.61 13.97L228.32 13.97L228.32 21.30L227.19 21.30L227.19 5.90ZM265.72 21.41L265.72 21.41Q264.02 21.41 262.49 20.82Q260.96 20.24 260.11 19.32L260.11 19.32L260.61 18.48Q261.43 19.34 262.80 19.88Q264.18 20.42 265.69 20.42L265.69 20.42Q267.89 20.42 269.02 19.58Q270.14 18.74 270.14 17.40L270.14 17.40Q270.14 16.37 269.54 15.75Q268.95 15.14 268.07 14.81Q267.19 14.48 265.69 14.12L265.69 14.12Q264.00 13.71 262.98 13.31Q261.95 12.91 261.24 12.09Q260.52 11.26 260.52 9.88L260.52 9.88Q260.52 8.76 261.12 7.82Q261.71 6.89 262.93 6.34Q264.15 5.79 265.98 5.79L265.98 5.79Q267.26 5.79 268.49 6.16Q269.72 6.53 270.62 7.17L270.62 7.17L270.20 8.07Q269.28 7.44 268.17 7.11Q267.06 6.78 265.98 6.78L265.98 6.78Q263.85 6.78 262.75 7.63Q261.65 8.49 261.65 9.86L261.65 9.86Q261.65 10.89 262.24 11.51Q262.83 12.12 263.71 12.45Q264.59 12.78 266.11 13.16L266.11 13.16Q267.81 13.57 268.82 13.97Q269.83 14.37 270.54 15.17Q271.26 15.97 271.26 17.34L271.26 17.34Q271.26 18.46 270.65 19.38Q270.05 20.31 268.80 20.86Q267.54 21.41 265.72 21.41ZM277.71 6.91L277.71 5.90L289.92 5.90L289.92 6.91L284.37 6.91L284.37 21.30L283.25 21.30L283.25 6.91L277.71 6.91ZM301.71 15.99L295.50 5.90L296.74 5.90L302.30 14.96L307.87 5.90L309.03 5.90L302.83 15.99L302.83 21.30L301.71 21.30L301.71 15.99ZM316.91 21.30L316.91 5.90L318.03 5.90L318.03 20.28L326.90 20.28L326.90 21.30L316.91 21.30ZM345.86 21.30L335.24 21.30L335.24 5.90L345.53 5.90L345.53 6.91L336.36 6.91L336.36 12.98L344.56 12.98L344.56 13.97L336.36 13.97L336.36 20.28L345.86 20.28L345.86 21.30Z"></path>
          </g>
  </svg>